# Blender v2.79 (sub 0) OBJ File: 'barrel_oil_03.blend'
# www.blender.org
mtllib barrel_oil_03.mtl
o colmesh-1_collisionmesh-1
v 0.000025 -0.000000 -0.305317
v 0.116893 -0.000000 -0.282071
v 0.215968 -0.000000 -0.215871
v 0.282169 -0.000000 -0.116795
v 0.305415 -0.000000 0.000072
v 0.282169 -0.000000 0.116940
v 0.215968 -0.000000 0.216015
v 0.116893 -0.000000 0.282216
v 0.000025 -0.000000 0.305462
v -0.116842 -0.000000 0.282216
v -0.215918 -0.000000 0.216016
v -0.282118 -0.000000 0.116940
v -0.305365 -0.000000 0.000072
v -0.282118 -0.000000 -0.116795
v -0.215918 -0.000000 -0.215871
v -0.116842 -0.000000 -0.282071
v 0.000025 0.882287 -0.305317
v 0.116893 0.882287 -0.282071
v 0.215969 0.882287 -0.215871
v 0.282169 0.882287 -0.116795
v 0.305415 0.882287 0.000072
v 0.282169 0.882287 0.116940
v 0.215969 0.882287 0.216015
v 0.116893 0.882287 0.282216
v 0.000025 0.882287 0.305462
v -0.116842 0.882287 0.282216
v -0.215918 0.882287 0.216016
v -0.282118 0.882287 0.116940
v -0.305364 0.882287 0.000072
v -0.282118 0.882287 -0.116795
v -0.215918 0.882287 -0.215871
v -0.116842 0.882287 -0.282071
vt 0.936523 0.616211
vt 0.707031 0.661133
vt 0.661133 0.431641
vt 0.890625 0.040039
vt 0.936523 0.269531
vt 0.707031 0.315430
vt 0.890625 0.385742
vt 0.936523 0.431641
vt 0.960938 0.491211
vt 0.960938 0.555664
vt 0.891602 0.661133
vt 0.832031 0.685547
vt 0.766602 0.685547
vt 0.661133 0.615234
vt 0.636719 0.555664
vt 0.636719 0.491211
vt 0.707031 0.385742
vt 0.766602 0.361328
vt 0.831055 0.361328
vt 0.661133 0.269531
vt 0.636719 0.209961
vt 0.636719 0.145508
vt 0.661133 0.085938
vt 0.707031 0.040039
vt 0.766602 0.014648
vt 0.831055 0.014648
vt 0.936523 0.085938
vt 0.961914 0.145508
vt 0.961914 0.209961
vt 0.890625 0.315430
vt 0.831055 0.339844
vt 0.766602 0.339844
vt 0.000143 0.562482
vt 0.603486 0.624964
vt 0.000143 0.624964
vt 0.603486 0.125107
vt 0.000143 0.187589
vt 0.000143 0.125107
vt 0.603486 0.062625
vt 0.000143 0.062625
vt 0.603486 0.375036
vt 0.000143 0.437518
vt 0.000143 0.375036
vt 0.603486 0.000143
vt 0.000143 0.000143
vt 0.603486 0.937375
vt 0.000143 0.999857
vt 0.000143 0.937375
vt 0.000143 0.500000
vt 0.603486 0.562482
vt 0.603486 0.749929
vt 0.000143 0.812411
vt 0.000143 0.749929
vt 0.603486 0.312553
vt 0.000143 0.312553
vt 0.603486 0.874893
vt 0.000143 0.874893
vt 0.603486 0.687446
vt 0.000143 0.687446
vt 0.603486 0.812411
vt 0.603486 0.187589
vt 0.000143 0.250071
vt 0.603486 0.250071
vt 0.603486 0.437518
vt 0.603486 0.999857
vt 0.603486 0.500000
vn 0.0000 -1.0000 -0.0000
vn 0.0000 1.0000 0.0000
vn 0.0000 -0.6657 0.7462
vn -0.2855 0.6657 0.6894
vn -0.2855 -0.6657 0.6894
vn 0.2855 0.6657 -0.6894
vn 0.5276 -0.6657 -0.5276
vn 0.2855 -0.6657 -0.6894
vn 0.0000 0.6657 -0.7462
vn 0.0000 -0.6657 -0.7462
vn 0.6894 0.6657 0.2855
vn 0.5276 -0.6657 0.5276
vn 0.6894 -0.6657 0.2855
vn -0.2855 0.6657 -0.6894
vn -0.2855 -0.6657 -0.6894
vn -0.5276 0.6657 -0.5276
vn -0.5276 -0.6657 -0.5276
vn 0.2855 -0.6657 0.6894
vn 0.0000 0.6657 0.7462
vn -0.6894 0.6657 0.2855
vn -0.7462 -0.6657 0.0000
vn -0.6894 -0.6657 0.2855
vn 0.7462 0.6657 0.0000
vn 0.7462 -0.6657 0.0000
vn -0.6894 0.6657 -0.2855
vn -0.6894 -0.6657 -0.2855
vn -0.5276 0.6657 0.5276
vn -0.5276 -0.6657 0.5276
vn -0.7462 0.6657 0.0000
vn 0.5276 0.6657 -0.5276
vn 0.6894 -0.6657 -0.2855
vn 0.6894 0.6657 -0.2855
vn 0.5276 0.6657 0.5276
vn 0.2855 0.6657 0.6894
usemtl None
s off
f 4/1/1 8/2/1 12/3/1
f 27/4/2 23/5/2 19/6/2
f 16/7/1 1/8/1 4/1/1
f 1/8/1 2/9/1 4/1/1
f 2/9/1 3/10/1 4/1/1
f 4/1/1 5/11/1 6/12/1
f 6/12/1 7/13/1 8/2/1
f 8/2/1 9/14/1 12/3/1
f 9/14/1 10/15/1 12/3/1
f 10/15/1 11/16/1 12/3/1
f 12/3/1 13/17/1 14/18/1
f 14/18/1 15/19/1 16/7/1
f 4/1/1 6/12/1 8/2/1
f 12/3/1 14/18/1 16/7/1
f 16/7/1 4/1/1 12/3/1
f 19/6/2 18/20/2 17/21/2
f 17/21/2 32/22/2 19/6/2
f 32/22/2 31/23/2 19/6/2
f 31/23/2 30/24/2 29/25/2
f 29/25/2 28/26/2 27/4/2
f 27/4/2 26/27/2 23/5/2
f 26/27/2 25/28/2 23/5/2
f 25/28/2 24/29/2 23/5/2
f 23/5/2 22/30/2 21/31/2
f 21/31/2 20/32/2 23/5/2
f 20/32/2 19/6/2 23/5/2
f 31/23/2 29/25/2 27/4/2
f 19/6/2 31/23/2 27/4/2
s 1
f 9/33/3 26/34/4 10/35/5
f 18/36/6 3/37/7 2/38/8
f 17/39/9 2/38/8 1/40/10
f 22/41/11 7/42/12 6/43/13
f 32/44/14 1/40/10 16/45/15
f 31/46/16 16/47/15 15/48/17
f 8/49/18 25/50/19 9/33/3
f 28/51/20 13/52/21 12/53/22
f 21/54/23 6/43/13 5/55/24
f 30/56/25 15/48/17 14/57/26
f 10/35/5 27/58/27 11/59/28
f 29/60/29 14/57/26 13/52/21
f 19/61/30 4/62/31 3/37/7
f 20/63/32 5/55/24 4/62/31
f 23/64/33 8/49/18 7/42/12
f 11/59/28 28/51/20 12/53/22
f 9/33/3 25/50/19 26/34/4
f 18/36/6 19/61/30 3/37/7
f 17/39/9 18/36/6 2/38/8
f 22/41/11 23/64/33 7/42/12
f 32/44/14 17/39/9 1/40/10
f 31/46/16 32/65/14 16/47/15
f 8/49/18 24/66/34 25/50/19
f 28/51/20 29/60/29 13/52/21
f 21/54/23 22/41/11 6/43/13
f 30/56/25 31/46/16 15/48/17
f 10/35/5 26/34/4 27/58/27
f 29/60/29 30/56/25 14/57/26
f 19/61/30 20/63/32 4/62/31
f 20/63/32 21/54/23 5/55/24
f 23/64/33 24/66/34 8/49/18
f 11/59/28 27/58/27 28/51/20
o barreloil1_barreloiloa6
v 0.000025 0.000000 -0.305317
v 0.116893 0.000000 -0.282071
v 0.215968 0.000000 -0.215871
v 0.282169 0.000000 -0.116795
v 0.305415 0.000000 0.000072
v 0.282169 0.000000 0.116940
v 0.215968 0.000000 0.216015
v 0.116893 0.000000 0.282216
v 0.000025 0.000000 0.305462
v -0.116842 0.000000 0.282216
v -0.215918 0.000000 0.216016
v -0.282118 0.000000 0.116940
v -0.305365 0.000000 0.000072
v -0.282118 0.000000 -0.116795
v -0.215918 0.000000 -0.215871
v -0.116842 0.000000 -0.282071
v 0.000025 0.882287 -0.305317
v 0.116893 0.882287 -0.282071
v 0.215969 0.882287 -0.215871
v 0.282169 0.882287 -0.116795
v 0.305415 0.882287 0.000072
v 0.282169 0.882287 0.116940
v 0.215969 0.882287 0.216015
v 0.116893 0.882287 0.282216
v 0.000025 0.882287 0.305462
v -0.116842 0.882287 0.282216
v -0.215918 0.882287 0.216016
v -0.282118 0.882287 0.116940
v -0.305364 0.882287 0.000072
v -0.282118 0.882287 -0.116795
v -0.215918 0.882287 -0.215871
v -0.116842 0.882287 -0.282071
vt 0.936523 0.616211
vt 0.707031 0.661133
vt 0.661133 0.431641
vt 0.890625 0.040039
vt 0.936523 0.269531
vt 0.707031 0.315430
vt 0.890625 0.385742
vt 0.936523 0.431641
vt 0.960938 0.491211
vt 0.960938 0.555664
vt 0.891602 0.661133
vt 0.832031 0.685547
vt 0.766602 0.685547
vt 0.661133 0.615234
vt 0.636719 0.555664
vt 0.636719 0.491211
vt 0.707031 0.385742
vt 0.766602 0.361328
vt 0.831055 0.361328
vt 0.661133 0.269531
vt 0.636719 0.209961
vt 0.636719 0.145508
vt 0.661133 0.085938
vt 0.707031 0.040039
vt 0.766602 0.014648
vt 0.831055 0.014648
vt 0.936523 0.085938
vt 0.961914 0.145508
vt 0.961914 0.209961
vt 0.890625 0.315430
vt 0.831055 0.339844
vt 0.766602 0.339844
vt 0.603486 0.562482
vt 0.000143 0.624964
vt 0.000143 0.562482
vt 0.603486 0.125107
vt 0.000143 0.187589
vt 0.000143 0.125107
vt 0.603486 0.062625
vt 0.000143 0.062625
vt 0.603486 0.375036
vt 0.000143 0.437518
vt 0.000143 0.375036
vt 0.603486 0.000143
vt 0.000143 0.000143
vt 0.603486 0.937375
vt 0.000143 0.999857
vt 0.000143 0.937375
vt 0.000143 0.500000
vt 0.603486 0.749929
vt 0.000143 0.812411
vt 0.000143 0.749929
vt 0.603486 0.312553
vt 0.000143 0.312553
vt 0.603486 0.874893
vt 0.000143 0.874893
vt 0.603486 0.624964
vt 0.000143 0.687446
vt 0.603486 0.187589
vt 0.000143 0.250071
vt 0.603486 0.250071
vt 0.603486 0.437518
vt 0.603486 0.687446
vt 0.603486 0.999857
vt 0.603486 0.500000
vt 0.603486 0.812411
vn 0.0000 -1.0000 0.0000
vn 0.0000 1.0000 0.0000
vn 0.0000 0.6657 0.7462
vn -0.2855 -0.6657 0.6894
vn 0.0000 -0.6657 0.7462
vn 0.2855 0.6657 -0.6894
vn 0.5276 -0.6657 -0.5276
vn 0.2855 -0.6657 -0.6894
vn 0.0000 0.6657 -0.7462
vn 0.0000 -0.6657 -0.7462
vn 0.6894 0.6657 0.2855
vn 0.5276 -0.6657 0.5276
vn 0.6894 -0.6657 0.2855
vn -0.2855 0.6657 -0.6894
vn -0.2855 -0.6657 -0.6894
vn -0.5276 0.6657 -0.5276
vn -0.5276 -0.6657 -0.5276
vn 0.2855 -0.6657 0.6894
vn -0.6894 0.6657 0.2855
vn -0.7462 -0.6657 0.0000
vn -0.6894 -0.6657 0.2855
vn 0.7462 0.6657 0.0000
vn 0.7462 -0.6657 0.0000
vn -0.6894 0.6657 -0.2855
vn -0.6894 -0.6657 -0.2855
vn -0.2855 0.6657 0.6894
vn -0.5276 -0.6657 0.5276
vn 0.5276 0.6657 -0.5276
vn 0.6894 -0.6657 -0.2855
vn 0.6894 0.6657 -0.2855
vn 0.5276 0.6657 0.5276
vn -0.5276 0.6657 0.5276
vn 0.2855 0.6657 0.6894
vn -0.7462 0.6657 0.0000
usemtl base_barrel_oil_03
s off
f 36/67/35 40/68/35 44/69/35
f 59/70/36 55/71/36 51/72/36
f 48/73/35 33/74/35 36/67/35
f 33/74/35 34/75/35 36/67/35
f 34/75/35 35/76/35 36/67/35
f 36/67/35 37/77/35 38/78/35
f 38/78/35 39/79/35 40/68/35
f 40/68/35 41/80/35 42/81/35
f 42/81/35 43/82/35 40/68/35
f 43/82/35 44/69/35 40/68/35
f 44/69/35 45/83/35 48/73/35
f 45/83/35 46/84/35 48/73/35
f 46/84/35 47/85/35 48/73/35
f 36/67/35 38/78/35 40/68/35
f 48/73/35 36/67/35 44/69/35
f 51/72/36 50/86/36 49/87/36
f 49/87/36 64/88/36 51/72/36
f 64/88/36 63/89/36 51/72/36
f 63/89/36 62/90/36 61/91/36
f 61/91/36 60/92/36 59/70/36
f 59/70/36 58/93/36 55/71/36
f 58/93/36 57/94/36 55/71/36
f 57/94/36 56/95/36 55/71/36
f 55/71/36 54/96/36 53/97/36
f 53/97/36 52/98/36 55/71/36
f 52/98/36 51/72/36 55/71/36
f 63/89/36 61/91/36 59/70/36
f 51/72/36 63/89/36 59/70/36
s 1
f 57/99/37 42/100/38 41/101/39
f 50/102/40 35/103/41 34/104/42
f 49/105/43 34/104/42 33/106/44
f 54/107/45 39/108/46 38/109/47
f 64/110/48 33/106/44 48/111/49
f 63/112/50 48/113/49 47/114/51
f 40/115/52 57/99/37 41/101/39
f 60/116/53 45/117/54 44/118/55
f 53/119/56 38/109/47 37/120/57
f 62/121/58 47/114/51 46/122/59
f 58/123/60 43/124/61 42/100/38
f 45/117/54 62/121/58 46/122/59
f 51/125/62 36/126/63 35/103/41
f 52/127/64 37/120/57 36/126/63
f 55/128/65 40/115/52 39/108/46
f 59/129/66 44/118/55 43/124/61
f 57/99/37 58/123/60 42/100/38
f 50/102/40 51/125/62 35/103/41
f 49/105/43 50/102/40 34/104/42
f 54/107/45 55/128/65 39/108/46
f 64/110/48 49/105/43 33/106/44
f 63/112/50 64/130/48 48/113/49
f 40/115/52 56/131/67 57/99/37
f 60/116/53 61/132/68 45/117/54
f 53/119/56 54/107/45 38/109/47
f 62/121/58 63/112/50 47/114/51
f 58/123/60 59/129/66 43/124/61
f 45/117/54 61/132/68 62/121/58
f 51/125/62 52/127/64 36/126/63
f 52/127/64 53/119/56 37/120/57
f 55/128/65 56/131/67 40/115/52
f 59/129/66 60/116/53 44/118/55
