# Blender v2.79 (sub 0) OBJ File: ''
# www.blender.org
mtllib medkit.mtl
o Medkit_Cube
v 24.317900 64.403503 14.652503
v 24.317900 97.923500 14.652404
v 11.084400 84.564201 14.652504
v 10.919100 77.373199 14.652504
v 3.728090 77.290604 14.652504
v 3.728090 70.264900 14.652503
v -3.958820 70.430199 14.652503
v -24.317900 64.403503 14.652503
v 3.810750 91.837898 14.652504
v -24.317900 97.923500 14.652404
v 3.893400 84.729500 14.652504
v -3.710850 91.837898 14.652504
v -10.653900 77.869202 14.652504
v -10.901800 84.729500 14.652504
v -3.793510 84.812202 14.652504
v -3.958820 77.621201 14.652504
v 28.131901 64.403503 -12.605797
v 28.131901 97.923500 -12.605796
v 28.131901 97.923500 12.605803
v 28.131901 64.403503 12.605803
v 24.317900 101.184998 -12.605795
v -24.317900 101.184998 -12.605795
v -24.317900 101.184998 12.605804
v 24.317900 101.184998 12.605804
v -28.131901 64.403503 12.605803
v -28.131901 97.923500 12.605803
v -28.131901 97.923500 -12.605796
v -28.131901 64.403503 -12.605797
v -24.317900 64.403503 -14.652397
v -24.317900 97.923500 -14.652496
v 24.317900 97.923500 -14.652496
v 24.317900 64.403503 -14.652397
v -24.317900 61.142200 12.605803
v -24.317900 61.142200 -12.605797
v 24.317900 61.142200 12.605803
v 24.317900 61.142200 -12.605797
v 3.728090 77.290604 16.002403
v 3.728090 70.264900 16.002403
v -10.901800 84.729500 16.002403
v -3.793510 84.812202 16.002403
v 11.084400 84.564201 16.002403
v 10.919100 77.373199 16.002403
v -10.653900 77.869202 16.002403
v -8.788790 78.436302 16.596004
v -8.993410 84.097397 16.596004
v 3.810750 91.837898 16.002403
v 3.893400 84.729500 16.002403
v -3.958820 70.430199 16.002403
v -3.710850 91.837898 16.002403
v -3.958820 77.621201 16.002403
v 9.013060 78.027000 16.596004
v 9.149470 83.960999 16.596004
v 3.215520 84.097397 16.596004
v 3.079110 77.958801 16.596004
v -3.264080 72.297699 16.596004
v 3.079110 72.161301 16.596004
v -3.264080 78.231697 16.596004
v -3.127670 84.165604 16.596004
v 3.147310 89.963203 16.596004
v -3.059460 89.963203 16.596004
v -15.990200 99.628998 3.411384
v -15.990200 106.214996 3.411385
v -15.990200 106.214996 -3.411376
v -15.990200 99.628998 -3.411376
v -7.659780 106.214996 -3.411376
v -7.659780 99.628998 -3.411376
v -12.408500 112.207001 -3.411375
v -7.659780 112.207001 -3.411375
v 7.700270 112.207001 -3.411375
v 7.700270 106.214996 -3.411376
v 12.384100 112.207001 -3.411375
v 16.241301 106.214996 -3.411376
v 16.241301 99.464699 -3.411376
v 7.700270 99.464699 -3.411376
v -7.659780 106.214996 3.411385
v -7.659780 99.628998 3.411384
v -7.659780 112.207001 3.411375
v 7.700270 106.214996 3.411385
v -12.408500 112.207001 3.411375
v 7.700270 112.207001 3.411375
v 16.241301 106.214996 3.411385
v 7.700270 99.464699 3.411384
v 12.384100 112.207001 3.411375
v 16.241301 99.464699 3.411384
v -6.150820 98.550102 1.581404
v -6.150820 102.378998 1.581405
v -6.150820 102.378998 -1.581396
v -6.150820 98.550102 -1.581396
v 5.263670 102.378998 -1.581396
v 5.263670 98.550102 -1.581396
v 5.263670 102.378998 1.581405
v 5.263670 98.550102 1.581404
vt 0.947907 0.348428
vt 0.676335 0.348427
vt 0.784569 0.253633
vt 0.842829 0.252449
vt 0.843498 0.200939
vt 0.900419 0.200939
vt 0.899080 0.145876
vt 0.947907 0.000040
vt 0.725640 0.201530
vt 0.676335 0.000039
vt 0.783230 0.202122
vt 0.725640 0.147652
vt 0.838811 0.097918
vt 0.783230 0.096141
vt 0.782560 0.147060
vt 0.840820 0.145876
vt 0.376984 0.404533
vt 0.648214 0.403029
vt 0.648214 0.737651
vt 0.376984 0.739155
vt 0.000044 0.403005
vt 0.336986 0.403005
vt 0.336986 0.739557
vt 0.000044 0.739557
vt 0.701104 0.433159
vt 0.972387 0.434570
vt 0.972387 0.769120
vt 0.701104 0.767709
vt 0.378340 0.027320
vt 0.649912 0.027320
vt 0.649912 0.375709
vt 0.378340 0.375709
vt 0.675928 0.430050
vt 0.702322 0.403029
vt 0.973605 0.404440
vt 1.000000 0.431735
vt 0.026423 0.375386
vt 0.026423 0.403005
vt 0.000000 0.375686
vt 0.676335 0.027320
vt 0.649912 0.000000
vt 0.351918 0.742220
vt 0.378307 0.769237
vt 0.675928 0.740423
vt 0.649538 0.767733
vt 0.351918 0.375709
vt 0.378340 0.403029
vt 0.807256 0.348428
vt 0.807256 0.375793
vt 0.780833 0.348473
vt 0.351918 0.375386
vt 0.351918 0.403005
vt 1.000000 0.766285
vt 0.378340 0.000000
vt 0.351918 0.027320
vt 0.676335 0.375709
vt 0.649912 0.403029
vt 0.351918 0.027018
vt 0.026423 0.027018
vt 0.026423 0.000000
vt 0.351918 0.000000
vt 0.675928 0.405801
vt 0.974380 0.000000
vt 0.974380 0.348388
vt 0.336942 0.766877
vt 0.000000 0.766877
vt 0.620193 0.924521
vt 0.620193 0.865740
vt 0.637521 0.865836
vt 0.637521 0.924617
vt 0.555269 0.926594
vt 0.555269 0.875677
vt 0.572697 0.875677
vt 0.572697 0.926594
vt 0.597689 0.875811
vt 0.597689 0.935917
vt 0.580361 0.935783
vt 0.580361 0.875677
vt 0.000000 0.824933
vt 0.037662 0.782631
vt 0.044427 0.794983
vt 0.013349 0.829890
vt 0.804633 0.919473
vt 0.804633 0.859971
vt 0.821961 0.860048
vt 0.821961 0.919550
vt 0.369346 0.877232
vt 0.369346 0.932307
vt 0.351918 0.932307
vt 0.351918 0.877232
vt 0.671074 0.860057
vt 0.671074 0.918876
vt 0.653749 0.918946
vt 0.653749 0.860127
vt 0.530177 0.927177
vt 0.530177 0.875677
vt 0.547605 0.875677
vt 0.547605 0.927177
vt 0.615013 0.875677
vt 0.615013 0.933005
vt 0.597689 0.933156
vt 0.597689 0.875827
vt 0.898381 0.769120
vt 0.898381 0.820633
vt 0.880953 0.820633
vt 0.880953 0.769120
vt 0.804633 0.865176
vt 0.804633 0.925352
vt 0.787309 0.925442
vt 0.787309 0.865266
vt 0.701427 0.348428
vt 0.701427 0.396406
vt 0.683999 0.396406
vt 0.683999 0.348428
vt 0.780833 0.348428
vt 0.780833 0.402306
vt 0.763405 0.402306
vt 0.763405 0.348428
vt 0.139869 0.875817
vt 0.109131 0.914050
vt 0.077317 0.887106
vt 0.109140 0.847576
vt 0.105911 0.781983
vt 0.139869 0.810846
vt 0.074459 0.819578
vt 0.043721 0.857812
vt 0.045869 0.923949
vt 0.013349 0.894861
vt 0.830089 0.875530
vt 0.830089 0.924631
vt 0.112171 0.766877
vt 0.153322 0.801854
vt 0.039409 0.938916
vt 0.000000 0.903667
vt 0.555269 0.889390
vt 0.555269 0.931887
vt 0.580361 0.889356
vt 0.580361 0.931373
vt 0.645622 0.924170
vt 0.645622 0.875633
vt 0.873289 0.825480
vt 0.873289 0.782972
vt 0.779166 0.909627
vt 0.779166 0.859971
vt 0.645622 0.860057
vt 0.645622 0.908562
vt 0.676335 0.401326
vt 0.676335 0.361735
vt 0.153322 0.880588
vt 0.116073 0.926921
vt 0.618006 0.769237
vt 0.617738 0.824348
vt 0.530177 0.824348
vt 0.530445 0.769237
vt 0.154654 0.766877
vt 0.208011 0.766877
vt 0.208011 0.826549
vt 0.154654 0.826549
vt 0.256561 0.792534
vt 0.256561 0.826549
vt 0.256561 0.936577
vt 0.208011 0.936577
vt 0.256561 0.970127
vt 0.208011 0.997758
vt 0.153322 0.997758
vt 0.153322 0.936577
vt 0.779166 0.769415
vt 0.832456 0.769120
vt 0.832456 0.859675
vt 0.779166 0.859970
vt 0.777834 0.828792
vt 0.724478 0.828792
vt 0.724478 0.769120
vt 0.777834 0.769120
vt 0.675928 0.828792
vt 0.724478 0.938819
vt 0.675928 0.794776
vt 0.675928 0.938819
vt 0.724478 1.000000
vt 0.779166 0.938819
vt 0.675928 0.972370
vt 0.779166 1.000000
vt 0.344646 0.910455
vt 0.344646 0.944471
vt 0.256561 0.944471
vt 0.256561 0.910455
vt 0.256561 0.800428
vt 0.344646 0.800428
vt 0.256561 0.766877
vt 0.344646 0.766877
vt 0.620193 0.875677
vt 0.532632 0.875677
vt 0.442091 0.769237
vt 0.530176 0.769237
vt 0.530176 0.879257
vt 0.442091 0.879257
vt 0.354511 0.825712
vt 0.442091 0.825712
vt 0.439498 0.877232
vt 0.351918 0.877232
vt 0.354219 0.769237
vt 0.441798 0.769237
vt 0.674823 0.769521
vt 0.674823 0.860057
vt 0.620193 0.859773
vt 0.620193 0.769237
vt 0.732413 0.348428
vt 0.763405 0.348589
vt 0.763405 0.390558
vt 0.732413 0.390397
vt 0.863481 0.932648
vt 0.832456 0.932648
vt 0.832456 0.850884
vt 0.863481 0.850884
vt 0.701427 0.348600
vt 0.732413 0.348428
vt 0.732413 0.390406
vt 0.701427 0.390578
vt 0.863481 0.850884
vt 0.894505 0.850884
vt 0.894505 0.932648
vt 0.863481 0.932648
vt 0.832456 0.769120
vt 0.873289 0.769120
vt 0.873289 0.850884
vn 0.0000 0.0000 1.0000
vn 1.0000 0.0000 0.0000
vn 0.0000 1.0000 0.0000
vn -1.0000 -0.0000 0.0000
vn 0.0000 -0.0000 -1.0000
vn -0.5774 -0.5773 0.5774
vn -0.5773 -0.5774 0.5774
vn -0.5774 0.5774 0.5773
vn -0.5774 0.5773 0.5773
vn -0.5774 -0.5773 -0.5773
vn -0.5774 -0.5774 -0.5773
vn -0.5773 0.5774 -0.5774
vn -0.5773 0.5773 -0.5774
vn 0.5774 -0.5773 0.5774
vn 0.5773 -0.5774 0.5774
vn 0.5774 0.5774 0.5773
vn 0.5774 0.5773 0.5773
vn 0.5774 -0.5773 -0.5773
vn 0.5774 -0.5774 -0.5773
vn 0.5773 0.5774 -0.5774
vn 0.5773 0.5773 -0.5774
vn -0.7071 -0.7071 0.0000
vn -0.7071 0.0000 0.7071
vn -0.7071 0.7071 -0.0000
vn -0.7071 -0.0000 -0.7071
vn -0.0000 -0.7071 -0.7071
vn 0.0000 0.7071 -0.7071
vn 0.7071 -0.0000 -0.7071
vn 0.7071 -0.7071 -0.0000
vn 0.7071 0.7071 0.0000
vn 0.7071 0.0000 0.7071
vn 0.0000 -0.7071 0.7071
vn -0.0000 0.7071 0.7071
vn 0.0001 0.7071 0.7071
vn 0.0000 -1.0000 0.0000
vn -0.3481 0.9375 0.0000
vn 0.9089 -0.4171 0.0001
vn 0.9089 -0.4171 -0.0000
vn -0.6846 -0.2500 0.6847
vn -0.6847 -0.2500 0.6846
vn 0.9741 0.2261 0.0000
vn -0.5660 -0.8244 0.0000
vn -0.9735 0.2287 -0.0001
vn -0.9735 0.2287 0.0000
vn 0.3445 -0.9388 0.0000
vn 0.3445 -0.9388 0.0001
vn -0.8110 -0.5850 0.0000
vn 0.5916 0.8062 0.0000
vn 0.7003 0.1382 0.7003
vn -0.2130 -0.6909 0.6909
vn 0.2066 -0.6918 0.6918
vn 0.2066 -0.6919 0.6918
vn 0.2066 -0.6918 0.6919
vn -0.2111 0.6912 0.6912
vn -0.7001 0.1405 0.7001
vn -0.7002 0.1404 0.7000
vn 0.3936 0.6500 0.6500
vn -0.5699 -0.5811 0.5811
vn -0.5699 -0.5810 0.5811
vn -0.5699 -0.5811 0.5810
vn 0.6980 -0.1599 0.6980
vn 0.6989 -0.1571 0.6978
usemtl Material.001
s 1
f 1/1/1 2/2/1 3/3/1
f 1/1/1 3/3/1 4/4/1
f 1/1/1 4/4/1 5/5/1
f 1/1/1 5/5/1 6/6/1
f 1/1/1 6/6/1 7/7/1
f 8/8/1 1/1/1 7/7/1
f 9/9/1 3/3/1 2/2/1
f 10/10/1 9/9/1 2/2/1
f 9/9/1 11/11/1 3/3/1
f 10/10/1 12/12/1 9/9/1
f 13/13/1 14/14/1 10/10/1
f 13/13/1 10/10/1 8/8/1
f 10/10/1 14/14/1 15/15/1
f 10/10/1 15/15/1 12/12/1
f 7/7/1 13/13/1 8/8/1
f 7/7/1 16/16/1 13/13/1
f 17/17/2 18/18/2 19/19/2
f 17/17/2 19/19/2 20/20/2
f 21/21/3 22/22/3 23/23/3
f 21/21/3 23/23/3 24/24/3
f 25/25/4 26/26/4 27/27/4
f 25/25/4 27/27/4 28/28/4
f 29/29/5 30/30/5 31/31/5
f 29/29/5 31/31/5 32/32/5
f 33/33/6 8/34/7 25/25/7
f 10/35/8 23/36/8 26/26/9
f 34/37/10 28/38/11 29/39/11
f 22/40/12 30/30/13 27/41/13
f 35/42/14 20/20/15 1/43/15
f 24/44/16 2/45/16 19/19/17
f 36/46/18 32/32/19 17/47/19
f 21/48/20 18/49/21 31/50/21
f 34/37/22 33/51/22 25/52/22
f 34/37/22 25/52/22 28/38/22
f 8/34/23 10/35/23 26/26/23
f 8/34/23 26/26/23 25/25/23
f 23/36/24 22/53/24 27/27/24
f 23/36/24 27/27/24 26/26/24
f 30/30/25 29/29/25 28/54/25
f 30/30/25 28/54/25 27/41/25
f 36/46/26 34/55/26 29/29/26
f 36/46/26 29/29/26 32/32/26
f 22/40/27 21/56/27 31/31/27
f 22/40/27 31/31/27 30/30/27
f 18/57/28 17/47/28 32/32/28
f 18/57/28 32/32/28 31/31/28
f 35/58/29 36/59/29 17/60/29
f 35/58/29 17/60/29 20/61/29
f 21/62/30 24/44/30 19/19/30
f 21/62/30 19/19/30 18/18/30
f 2/45/31 1/43/31 20/20/31
f 2/45/31 20/20/31 19/19/31
f 33/63/32 35/64/32 1/1/32
f 33/63/32 1/1/32 8/8/32
f 24/24/33 23/23/34 10/65/33
f 24/24/33 10/65/33 2/66/33
f 34/37/35 36/59/35 35/58/35
f 34/37/35 35/58/35 33/51/35
f 6/67/2 5/68/2 37/69/2
f 6/67/2 37/69/2 38/70/2
f 15/71/36 14/72/36 39/73/36
f 15/71/36 39/73/36 40/74/36
f 4/75/37 3/76/38 41/77/38
f 4/75/37 41/77/38 42/78/38
f 39/79/39 43/80/40 44/81/40
f 39/79/39 44/81/40 45/82/39
f 11/83/41 9/84/41 46/85/41
f 11/83/41 46/85/41 47/86/41
f 7/87/42 6/88/42 38/89/42
f 7/87/42 38/89/42 48/90/42
f 12/91/43 15/92/44 40/93/44
f 12/91/43 40/93/44 49/94/44
f 5/95/45 4/96/45 42/97/46
f 5/95/45 42/97/46 37/98/45
f 14/99/47 13/100/47 43/101/47
f 14/99/47 43/101/47 39/102/47
f 3/103/48 11/104/48 47/105/48
f 3/103/48 47/105/48 41/106/48
f 16/107/4 7/108/4 48/109/4
f 16/107/4 48/109/4 50/110/4
f 13/111/22 16/112/22 50/113/22
f 13/111/22 50/113/22 43/114/22
f 9/115/3 12/116/3 49/117/3
f 9/115/3 49/117/3 46/118/3
f 51/119/1 52/120/1 53/121/1
f 54/122/1 51/119/1 53/121/1
f 55/123/1 56/124/1 54/122/1
f 53/121/1 55/123/1 54/122/1
f 53/121/1 57/125/1 55/123/1
f 53/121/1 44/81/1 57/125/1
f 53/121/1 45/82/1 44/81/1
f 53/121/1 58/126/1 45/82/1
f 53/121/1 59/127/1 60/128/1
f 53/121/1 60/128/1 58/126/1
f 47/86/49 46/85/49 59/129/49
f 47/86/49 59/129/49 53/130/49
f 48/131/50 38/132/50 56/124/50
f 48/131/50 56/124/50 55/123/50
f 46/133/33 49/134/33 60/128/33
f 46/133/33 60/128/33 59/127/33
f 37/98/51 42/97/51 51/135/52
f 37/98/51 51/135/52 54/136/53
f 40/74/54 39/73/54 45/137/54
f 40/74/54 45/137/54 58/138/54
f 49/94/55 40/93/55 58/139/55
f 49/94/55 58/139/55 60/140/56
f 41/106/57 47/105/57 53/141/57
f 41/106/57 53/141/57 52/142/57
f 50/110/23 48/109/23 55/143/23
f 50/110/23 55/143/23 57/144/23
f 38/70/31 37/69/31 54/145/31
f 38/70/31 54/145/31 56/146/31
f 43/114/58 50/113/59 57/147/58
f 43/114/58 57/147/58 44/148/60
f 42/149/61 41/150/61 52/120/61
f 42/149/61 52/120/61 51/119/62
f 61/151/4 62/152/4 63/153/4
f 61/151/4 63/153/4 64/154/4
f 64/155/5 63/156/5 65/157/5
f 64/155/5 65/157/5 66/158/5
f 65/157/5 63/156/5 67/159/5
f 65/157/5 67/159/5 68/160/5
f 65/157/5 68/160/5 69/161/5
f 65/157/5 69/161/5 70/162/5
f 70/162/5 69/161/5 71/163/5
f 70/162/5 71/163/5 72/164/5
f 70/162/5 72/164/5 73/165/5
f 70/162/5 73/165/5 74/166/5
f 66/167/2 65/168/2 75/169/2
f 66/167/2 75/169/2 76/170/2
f 76/171/1 75/172/1 62/173/1
f 76/171/1 62/173/1 61/174/1
f 62/173/1 75/172/1 77/175/1
f 77/175/1 75/172/1 78/176/1
f 62/173/1 77/175/1 79/177/1
f 77/175/1 78/176/1 80/178/1
f 80/178/1 78/176/1 81/179/1
f 81/179/1 78/176/1 82/180/1
f 80/178/1 81/179/1 83/181/1
f 81/179/1 82/180/1 84/182/1
f 68/183/3 67/184/3 79/185/3
f 68/183/3 79/185/3 77/186/3
f 68/183/3 77/186/3 80/187/3
f 68/183/3 80/187/3 69/188/3
f 69/188/3 80/187/3 83/189/3
f 69/188/3 83/189/3 71/190/3
f 63/153/24 62/152/24 79/191/24
f 63/153/24 79/191/24 67/192/24
f 75/193/35 65/194/35 70/195/35
f 75/193/35 70/195/35 78/196/35
f 81/197/30 72/198/30 71/199/30
f 81/197/30 71/199/30 83/200/30
f 72/198/2 81/197/2 84/201/2
f 72/198/2 84/201/2 73/202/2
f 78/203/4 70/204/4 74/205/4
f 78/203/4 74/205/4 82/206/4
f 85/207/4 86/208/4 87/209/4
f 85/207/4 87/209/4 88/210/4
f 88/211/5 87/212/5 89/213/5
f 88/211/5 89/213/5 90/214/5
f 90/215/2 89/216/2 91/217/2
f 90/215/2 91/217/2 92/218/2
f 92/219/1 91/220/1 86/221/1
f 92/219/1 86/221/1 85/222/1
f 89/213/3 87/223/3 86/224/3
f 89/213/3 86/224/3 91/225/3
