# Blender v2.79 (sub 0) OBJ File: ''
# www.blender.org
mtllib tree_b.mtl
o Cylinder.001_Cylinder.002
v -0.493602 0.805452 1.180263
v -0.493602 1.601277 1.126104
v -0.281470 1.601277 1.213972
v -0.319767 0.805452 1.252268
v -0.193602 1.601277 1.426104
v -0.247762 0.805452 1.426104
v -0.281470 1.601277 1.638236
v -0.319767 0.805452 1.599939
v -0.493602 1.601277 1.726104
v -0.493602 0.805452 1.671944
v -0.705734 1.601277 1.638236
v -0.667438 0.805452 1.599939
v -0.793602 1.601277 1.426104
v -0.739443 0.805452 1.426104
v -0.705734 1.601277 1.213972
v -0.667438 0.805452 1.252268
v -0.493602 0.009627 1.098616
v -0.262033 0.009627 1.194535
v -0.166114 0.009627 1.426104
v -0.262033 0.009627 1.657673
v -0.493602 0.009627 1.753592
v -0.725171 0.009627 1.657673
v -0.821090 0.009627 1.426104
v -0.725171 0.009627 1.194535
vn 0.3819 -0.0627 -0.9221
vn 0.9221 -0.0628 -0.3819
vn 0.9221 -0.0628 0.3819
vn 0.3819 -0.0628 0.9221
vn -0.3819 -0.0628 0.9221
vn -0.9221 -0.0627 0.3819
vn 0.0000 1.0000 0.0000
vn -0.9221 -0.0627 -0.3819
vn -0.3819 -0.0627 -0.9221
vn 0.0000 -1.0000 -0.0000
vn -0.3810 0.0944 -0.9198
vn -0.9198 0.0944 -0.3810
vn -0.9198 0.0944 0.3810
vn -0.3810 0.0944 0.9198
vn 0.3810 0.0944 0.9198
vn 0.9198 0.0944 0.3810
vn 0.9198 0.0944 -0.3810
vn 0.3810 0.0944 -0.9198
usemtl mat1
s 1
f 2//1 4//1 1//1
f 3//2 6//2 4//2
f 5//3 8//3 6//3
f 7//4 10//4 8//4
f 10//5 11//5 12//5
f 12//6 13//6 14//6
f 13//7 9//7 5//7
f 14//8 15//8 16//8
f 15//9 1//9 16//9
f 23//10 24//10 20//10
f 16//11 17//11 24//11
f 14//12 24//12 23//12
f 12//13 23//13 22//13
f 10//14 22//14 21//14
f 8//15 21//15 20//15
f 6//16 20//16 19//16
f 4//17 19//17 18//17
f 17//18 4//18 18//18
f 2//1 3//1 4//1
f 3//2 5//2 6//2
f 5//3 7//3 8//3
f 7//4 9//4 10//4
f 10//5 9//5 11//5
f 12//6 11//6 13//6
f 5//7 3//7 13//7
f 3//7 2//7 13//7
f 2//7 15//7 13//7
f 13//7 11//7 9//7
f 9//7 7//7 5//7
f 14//8 13//8 15//8
f 15//9 2//9 1//9
f 24//10 17//10 20//10
f 17//10 18//10 20//10
f 18//10 19//10 20//10
f 20//10 21//10 22//10
f 22//10 23//10 20//10
f 16//11 1//11 17//11
f 14//12 16//12 24//12
f 12//13 14//13 23//13
f 10//14 12//14 22//14
f 8//15 10//15 21//15
f 6//16 8//16 20//16
f 4//17 6//17 19//17
f 17//18 1//18 4//18
o Cylinder_Cylinder.001
v -0.493693 6.306140 0.994456
v -0.493472 7.553496 1.323133
v -0.420331 7.553496 1.353429
v -0.187409 6.522780 1.119911
v -0.386736 7.471259 1.438318
v -0.046571 6.306140 1.441578
v -0.420331 7.553496 1.499710
v -0.187409 6.522780 1.732297
v -0.493472 7.553496 1.530006
v -0.493693 6.306140 1.888700
v -0.566612 7.553496 1.499710
v -0.799796 6.522780 1.732297
v -0.596908 7.553496 1.426569
v -0.940815 6.306140 1.441578
v -0.566612 7.553496 1.353429
v -0.799796 6.522780 1.119911
v -0.493693 1.136262 0.409017
v 0.213504 1.352902 0.718997
v 0.538868 1.136262 1.441578
v 0.213504 1.352902 2.133210
v -0.493693 1.136262 2.474139
v -1.200709 1.352902 2.133210
v -1.526254 1.136262 1.441578
v -1.200709 1.352902 0.718997
v -1.754967 1.352902 0.164740
v -1.098915 2.386878 0.820792
v -0.493693 2.170238 0.557664
v -0.493693 1.136262 -0.400344
v -1.563878 2.386878 0.355828
v -0.997120 3.420854 0.922586
v -0.493693 3.204213 0.706311
v -0.493693 2.170238 -0.121305
v -1.377023 3.420854 0.542683
v -0.895325 4.454829 1.024381
v -0.493693 4.238189 0.854958
v -0.493693 3.204213 0.151552
v -1.192585 4.454829 0.727121
v -0.793530 5.488805 1.126176
v -0.493693 5.272164 1.003604
v -0.493693 4.238189 0.420880
v -1.013375 5.488805 0.906331
v -0.691736 6.522780 1.227970
v -0.493693 6.306140 1.152251
v -0.493693 5.272164 0.682574
v -2.335615 1.136262 1.441578
v -1.377607 2.170238 1.441578
v -2.056576 2.170238 1.441578
v -1.228960 3.204213 1.441578
v -1.783719 3.204213 1.441578
v -1.080313 4.238189 1.441578
v -1.514391 4.238189 1.441578
v -0.931666 5.272164 1.441578
v -1.252697 5.272164 1.441578
v -0.783020 6.306140 1.441578
v -1.754967 1.352902 2.687468
v -1.098915 2.386878 2.031416
v -1.563878 2.386878 2.496379
v -0.997120 3.420854 1.929621
v -1.377023 3.420854 2.309525
v -0.895325 4.454829 1.827826
v -1.192585 4.454829 2.125086
v -0.793530 5.488805 1.726032
v -1.013375 5.488805 1.945876
v -0.691736 6.522780 1.624237
v -0.493693 1.136262 3.283500
v -0.493693 2.170238 2.325492
v -0.493693 2.170238 3.004461
v -0.493693 3.204213 2.176846
v -0.493693 3.204213 2.731604
v -0.493693 4.238189 2.028198
v -0.493693 4.238189 2.462276
v -0.493693 5.272164 1.879552
v -0.493693 5.272164 2.200582
v -0.493693 6.306140 1.730905
v 0.767762 1.352902 2.687468
v 0.111710 2.386878 2.031416
v 0.576673 2.386878 2.496379
v 0.009915 3.420854 1.929621
v 0.389819 3.420854 2.309525
v -0.091880 4.454829 1.827826
v 0.205381 4.454829 2.125087
v -0.193674 5.488805 1.726032
v 0.026170 5.488805 1.945876
v -0.295469 6.522780 1.624237
v 1.348229 1.136262 1.441578
v 0.390221 2.170238 1.441578
v 1.069190 2.170238 1.441578
v 0.241575 3.204213 1.441578
v 0.796334 3.204213 1.441578
v 0.092928 4.238189 1.441578
v 0.527005 4.238189 1.441578
v -0.055719 5.272164 1.441578
v 0.265311 5.272164 1.441578
v -0.204366 6.306140 1.441578
v 0.767762 1.352902 0.164740
v 0.111710 2.386878 0.820792
v 0.576673 2.386878 0.355828
v 0.009915 3.420854 0.922586
v 0.389819 3.420854 0.542683
v -0.091880 4.454829 1.024381
v 0.205381 4.454829 0.727121
v -0.193674 5.488805 1.126176
v 0.026170 5.488805 0.906331
v -0.295469 6.522780 1.227970
vn 0.3406 0.2782 -0.8981
vn 0.2167 0.2504 -0.9436
vn 0.2110 0.2490 -0.9452
vn 0.9366 0.2712 -0.2216
vn 0.9560 0.2516 -0.1511
vn 0.9353 0.2724 -0.2260
vn 0.9482 0.2571 0.1867
vn 0.9307 0.2715 0.2450
vn 0.9298 0.2722 0.2476
vn 0.2863 0.2657 0.9206
vn 0.3525 0.2799 0.8930
vn 0.2832 0.2650 0.9217
vn -0.3525 0.2800 0.8929
vn -0.2863 0.2658 0.9205
vn -0.2833 0.2651 0.9217
vn -0.9293 0.2606 0.2618
vn -0.8945 0.2796 0.3489
vn -0.9306 0.2597 0.2579
vn 0.0000 1.0000 -0.0000
vn 0.3585 0.9335 -0.0000
vn -0.8965 0.2789 -0.3443
vn -0.9354 0.2565 -0.2434
vn -0.9369 0.2554 -0.2387
vn -0.2168 0.2505 -0.9435
vn -0.3406 0.2783 -0.8981
vn -0.2111 0.2491 -0.9452
vn -0.1155 -0.9869 -0.1127
vn 0.1154 -0.9869 -0.1127
vn 0.1136 -0.9867 0.1163
vn -0.1845 0.6423 -0.7439
vn -0.1691 0.6267 -0.7607
vn -0.2073 0.6649 -0.7176
vn -0.1920 0.5883 -0.7855
vn -0.1680 0.5661 -0.8071
vn -0.2163 0.6101 -0.7622
vn -0.1969 0.5283 -0.8259
vn -0.1585 0.4972 -0.8530
vn -0.2224 0.5484 -0.8061
vn -0.1975 0.4614 -0.8649
vn -0.1338 0.4183 -0.8984
vn -0.2237 0.4785 -0.8491
vn -0.1881 0.3907 -0.9011
vn -0.0726 0.3294 -0.9414
vn -0.2145 0.4039 -0.8893
vn -0.7567 0.6288 -0.1789
vn -0.7419 0.6425 -0.1920
vn -0.7167 0.6640 -0.2132
vn -0.8022 0.5690 -0.1809
vn -0.7831 0.5883 -0.2013
vn -0.7609 0.6091 -0.2238
vn -0.8470 0.5014 -0.1763
vn -0.8230 0.5283 -0.2087
vn -0.8043 0.5471 -0.2320
vn -0.8911 0.4246 -0.1603
vn -0.8614 0.4611 -0.2129
vn -0.8464 0.4770 -0.2366
vn -0.9331 0.3398 -0.1174
vn -0.8966 0.3900 -0.2097
vn -0.8854 0.4022 -0.2331
vn -0.7397 0.6432 0.1979
vn -0.7556 0.6288 0.1836
vn -0.7158 0.6633 0.2183
vn -0.7807 0.5891 0.2086
vn -0.8008 0.5691 0.1867
vn -0.7598 0.6081 0.2300
vn -0.8202 0.5290 0.2178
vn -0.8455 0.5016 0.1833
vn -0.8027 0.5461 0.2398
vn -0.8581 0.4618 0.2246
vn -0.8894 0.4249 0.1686
vn -0.8443 0.4758 0.2467
vn -0.8926 0.3905 0.2252
vn -0.9321 0.3400 0.1253
vn -0.8824 0.4008 0.2466
vn -0.1930 0.6308 0.7516
vn -0.2052 0.6433 0.7376
vn -0.2241 0.6624 0.7149
vn -0.1990 0.5717 0.7959
vn -0.2175 0.5891 0.7782
vn -0.2372 0.6071 0.7584
vn -0.2003 0.5054 0.8393
vn -0.2290 0.5288 0.8172
vn -0.2490 0.5448 0.8008
vn -0.1937 0.4304 0.8816
vn -0.2393 0.4613 0.8543
vn -0.2590 0.4742 0.8415
vn -0.1678 0.3491 0.9219
vn -0.2456 0.3896 0.8876
vn -0.2641 0.3989 0.8781
vn 0.2051 0.6433 0.7377
vn 0.1930 0.6308 0.7516
vn 0.2240 0.6624 0.7149
vn 0.2175 0.5891 0.7782
vn 0.1990 0.5717 0.7960
vn 0.2371 0.6071 0.7584
vn 0.2290 0.5288 0.8173
vn 0.2002 0.5054 0.8394
vn 0.2490 0.5448 0.8008
vn 0.2393 0.4613 0.8544
vn 0.1936 0.4304 0.8816
vn 0.2589 0.4742 0.8415
vn 0.2455 0.3896 0.8877
vn 0.1677 0.3491 0.9219
vn 0.2640 0.3989 0.8782
vn 0.7556 0.6288 0.1835
vn 0.7397 0.6432 0.1978
vn 0.7159 0.6633 0.2182
vn 0.8009 0.5690 0.1865
vn 0.7807 0.5891 0.2084
vn 0.7598 0.6082 0.2299
vn 0.8455 0.5015 0.1831
vn 0.8202 0.5290 0.2176
vn 0.8027 0.5461 0.2397
vn 0.8895 0.4248 0.1682
vn 0.8581 0.4618 0.2244
vn 0.8443 0.4758 0.2465
vn 0.9322 0.3399 0.1247
vn 0.8927 0.3905 0.2249
vn 0.8824 0.4008 0.2463
vn 0.7419 0.6425 -0.1919
vn 0.7567 0.6288 -0.1788
vn 0.7167 0.6640 -0.2131
vn 0.7832 0.5883 -0.2012
vn 0.8022 0.5690 -0.1807
vn 0.7609 0.6091 -0.2236
vn 0.8231 0.5283 -0.2085
vn 0.8471 0.5014 -0.1761
vn 0.8043 0.5471 -0.2319
vn 0.8615 0.4611 -0.2127
vn 0.8912 0.4245 -0.1600
vn 0.8465 0.4771 -0.2364
vn 0.8967 0.3900 -0.2094
vn 0.9332 0.3397 -0.1168
vn 0.8855 0.4022 -0.2328
vn 0.1691 0.6267 -0.7607
vn 0.1845 0.6423 -0.7439
vn 0.2073 0.6649 -0.7176
vn 0.1680 0.5661 -0.8071
vn 0.1920 0.5883 -0.7855
vn 0.2163 0.6101 -0.7622
vn 0.1585 0.4972 -0.8530
vn 0.1968 0.5283 -0.8259
vn 0.2224 0.5484 -0.8061
vn 0.1338 0.4183 -0.8984
vn 0.1974 0.4614 -0.8649
vn 0.2237 0.4785 -0.8491
vn 0.0726 0.3294 -0.9414
vn 0.1880 0.3907 -0.9011
vn 0.2144 0.4040 -0.8893
vn -0.4936 -0.8053 0.3284
vn -0.6585 -0.7414 0.1293
vn -0.7381 -0.6747 0.0000
vn 0.1039 -0.8224 -0.5593
vn 0.3603 -0.7649 -0.5339
vn 0.5012 -0.7054 -0.5012
vn 0.3760 -0.7325 0.5675
vn 0.1177 -0.7930 0.5977
vn 0.5271 -0.6665 0.5271
vn -0.5747 -0.8114 -0.1064
vn -0.5392 -0.7596 -0.3637
vn -0.5014 -0.7052 -0.5014
vn 0.5390 -0.7598 -0.3636
vn 0.5745 -0.8116 -0.1063
vn -0.1177 -0.7930 0.5978
vn -0.3761 -0.7323 0.5677
vn -0.5273 -0.6663 0.5273
vn -0.3604 -0.7648 -0.5341
vn -0.1040 -0.8224 -0.5594
vn 0.6583 -0.7416 0.1292
vn 0.4934 -0.8054 0.3284
vn 0.7378 -0.6751 0.0000
vn 0.4007 -0.9086 0.1179
vn 0.4112 -0.8798 0.2384
vn 0.4150 -0.8096 0.4150
vn -0.2329 -0.8885 -0.3953
vn -0.1091 -0.9155 -0.3872
vn -0.3959 -0.8285 -0.3959
vn -0.1210 -0.9048 0.4083
vn -0.2403 -0.8771 0.4158
vn -0.4152 -0.8095 0.4152
vn 0.3993 -0.8863 -0.2347
vn 0.3944 -0.9121 -0.1117
vn 0.3958 -0.8286 -0.3958
vn -0.3945 -0.9121 -0.1118
vn -0.3994 -0.8862 -0.2348
vn 0.2402 -0.8772 0.4158
vn 0.1210 -0.9048 0.4083
vn 0.1091 -0.9155 -0.3872
vn 0.2329 -0.8886 -0.3952
vn -0.4114 -0.8797 0.2384
vn -0.4008 -0.9085 0.1180
vn 0.3108 -0.9455 0.0970
vn 0.3214 -0.9292 0.1828
vn 0.3342 -0.8813 0.3342
vn -0.1794 -0.9333 -0.3112
vn -0.0910 -0.9489 -0.3021
vn -0.3207 -0.8912 -0.3207
vn -0.0991 -0.9438 0.3154
vn -0.1839 -0.9279 0.3244
vn -0.3343 -0.8812 0.3343
vn 0.3139 -0.9321 -0.1805
vn 0.3064 -0.9474 -0.0928
vn 0.3206 -0.8913 -0.3206
vn -0.3065 -0.9473 -0.0929
vn -0.3140 -0.9321 -0.1805
vn 0.1839 -0.9279 0.3243
vn 0.0991 -0.9438 0.3154
vn 0.0910 -0.9489 -0.3020
vn 0.1794 -0.9333 -0.3112
vn -0.3214 -0.9291 0.1828
vn -0.3108 -0.9455 0.0970
vn 0.2516 -0.9644 0.0818
vn 0.2611 -0.9541 0.1464
vn 0.2769 -0.9201 0.2769
vn -0.1442 -0.9563 -0.2543
vn -0.0776 -0.9662 -0.2457
vn -0.2672 -0.9259 -0.2672
vn -0.0833 -0.9634 0.2547
vn -0.1472 -0.9535 0.2631
vn -0.2770 -0.9201 0.2770
vn 0.2561 -0.9557 -0.1450
vn 0.2486 -0.9654 -0.0789
vn 0.2671 -0.9259 -0.2671
vn -0.2486 -0.9654 -0.0789
vn -0.2562 -0.9557 -0.1450
vn 0.1472 -0.9535 0.2631
vn 0.0833 -0.9634 0.2547
vn 0.0776 -0.9663 -0.2457
vn 0.1442 -0.9563 -0.2542
vn 0.2671 -0.9259 -0.2672
vn -0.2611 -0.9541 0.1465
vn -0.2517 -0.9643 0.0818
vn 0.2106 -0.9750 0.0705
vn 0.2189 -0.9681 0.1216
vn 0.2352 -0.9430 0.2352
vn -0.1200 -0.9694 -0.2140
vn -0.0673 -0.9762 -0.2063
vn -0.2280 -0.9466 -0.2280
vn -0.0716 -0.9745 0.2128
vn -0.1221 -0.9677 0.2203
vn -0.2353 -0.9430 0.2353
vn 0.2154 -0.9691 -0.1206
vn 0.2084 -0.9757 -0.0683
vn 0.2280 -0.9466 -0.2280
vn -0.2084 -0.9756 -0.0683
vn -0.2154 -0.9691 -0.1206
vn 0.1221 -0.9678 0.2203
vn 0.0716 -0.9745 0.2128
vn 0.0673 -0.9762 -0.2063
vn 0.1200 -0.9694 -0.2140
vn -0.2189 -0.9681 0.1216
vn -0.2107 -0.9750 0.0705
vn 0.1806 -0.9816 0.0619
vn 0.1878 -0.9768 0.1034
vn 0.2039 -0.9575 0.2039
vn -0.1023 -0.9776 -0.1842
vn -0.0595 -0.9823 -0.1773
vn -0.1984 -0.9598 -0.1984
vn -0.0628 -0.9813 0.1822
vn -0.1038 -0.9765 0.1889
vn -0.2040 -0.9575 0.2040
vn 0.1852 -0.9773 -0.1026
vn 0.1788 -0.9820 -0.0603
vn 0.1984 -0.9598 -0.1984
vn -0.1789 -0.9820 -0.0603
vn -0.1852 -0.9773 -0.1026
vn 0.1038 -0.9765 0.1888
vn 0.0628 -0.9813 0.1821
vn 0.0595 -0.9823 -0.1773
vn 0.1023 -0.9776 -0.1842
vn -0.1878 -0.9768 0.1034
vn -0.1806 -0.9816 0.0619
vn 0.3670 0.2836 -0.8859
vn 0.9587 0.2481 -0.1390
vn 0.9503 0.2550 0.1784
vn 0.3670 0.2829 0.8861
vn -0.3670 0.2830 0.8861
vn -0.8860 0.2833 0.3670
vn 0.9257 0.3782 0.0000
vn 0.3131 0.9497 0.0000
vn -0.8860 0.2836 -0.3670
vn -0.3670 0.2837 -0.8859
vn 0.0000 -0.8197 0.5728
vn -0.1136 -0.9867 0.1163
vn -0.5542 -0.8324 0.0000
vn 0.0000 -0.8440 -0.5363
vn 0.5540 -0.8325 0.0000
vn -0.1347 0.5904 -0.7958
vn -0.1312 0.5309 -0.8372
vn -0.1196 0.4645 -0.8775
vn -0.0931 0.3896 -0.9163
vn -0.0299 0.3054 -0.9518
vn -0.7903 0.5948 -0.1472
vn -0.8311 0.5363 -0.1474
vn -0.8706 0.4714 -0.1412
vn -0.9087 0.3986 -0.1242
vn -0.9444 0.3188 -0.0803
vn -0.7877 0.5968 0.1530
vn -0.8283 0.5386 0.1544
vn -0.8677 0.4740 0.1497
vn -0.9060 0.4015 0.1342
vn -0.9427 0.3213 0.0901
vn -0.1649 0.6009 0.7821
vn -0.1697 0.5436 0.8220
vn -0.1703 0.4802 0.8605
vn -0.1636 0.4095 0.8975
vn -0.1380 0.3331 0.9327
vn 0.1649 0.6009 0.7821
vn 0.1697 0.5436 0.8220
vn 0.1702 0.4802 0.8605
vn 0.1636 0.4095 0.8975
vn 0.1379 0.3331 0.9328
vn 0.7877 0.5968 0.1528
vn 0.8284 0.5386 0.1541
vn 0.8678 0.4739 0.1494
vn 0.9061 0.4013 0.1338
vn 0.9428 0.3211 0.0894
vn 0.7903 0.5948 -0.1470
vn 0.8311 0.5362 -0.1472
vn 0.8706 0.4713 -0.1410
vn 0.9088 0.3985 -0.1238
vn 0.9445 0.3186 -0.0797
vn 0.1346 0.5904 -0.7958
vn 0.1312 0.5308 -0.8373
vn 0.1196 0.4645 -0.8775
vn 0.0931 0.3896 -0.9163
vn 0.0298 0.3054 -0.9518
vn -0.4093 -0.8154 0.4093
vn 0.0000 -0.8294 -0.5586
vn 0.0000 -0.8018 0.5975
vn -0.5777 -0.8163 0.0000
vn 0.5775 -0.8164 0.0000
vn 0.4092 -0.8155 0.4092
vn 0.3847 -0.9231 0.0000
vn 0.0000 -0.9270 -0.3752
vn 0.0000 -0.9188 0.3947
vn -0.3848 -0.9230 0.0000
vn 0.2960 -0.9552 0.0000
vn 0.0000 -0.9570 -0.2902
vn 0.0000 -0.9533 0.3021
vn -0.2961 -0.9552 0.0000
vn 0.2381 -0.9712 0.0000
vn 0.0000 -0.9722 -0.2343
vn 0.0000 -0.9702 0.2422
vn -0.2382 -0.9712 0.0000
vn 0.1984 -0.9801 0.0000
vn 0.0000 -0.9807 -0.1957
vn 0.0000 -0.9796 0.2012
vn -0.1984 -0.9801 -0.0000
vn 0.1693 -0.9856 0.0000
vn 0.0000 -0.9859 -0.1673
vn 0.0000 -0.9852 0.1713
vn -0.1693 -0.9856 0.0000
usemtl mat1.001
s 1
f 26//19 28//20 25//21
f 28//22 29//23 30//24
f 29//25 32//26 30//27
f 32//28 33//29 34//30
f 33//31 36//32 34//33
f 36//34 37//35 38//36
f 35//37 33//37 31//38
f 37//39 40//40 38//41
f 40//42 26//43 25//44
f 44//45 46//46 48//47
f 49//48 51//49 52//50
f 53//51 55//52 56//53
f 57//54 59//55 60//56
f 61//57 63//58 64//59
f 65//60 67//61 68//62
f 70//63 49//64 69//65
f 72//66 53//67 71//68
f 74//69 57//70 73//71
f 76//72 61//73 75//74
f 78//75 65//76 77//77
f 79//78 70//79 69//80
f 81//81 72//82 71//83
f 83//84 74//85 73//86
f 85//87 76//88 75//89
f 87//90 78//91 77//92
f 90//93 79//94 89//95
f 92//96 81//97 91//98
f 94//99 83//100 93//101
f 96//102 85//103 95//104
f 98//105 87//106 97//107
f 99//108 90//109 89//110
f 101//111 92//112 91//113
f 103//114 94//115 93//116
f 105//117 96//118 95//119
f 107//120 98//121 97//122
f 110//123 99//124 109//125
f 112//126 101//127 111//128
f 114//129 103//130 113//131
f 116//132 105//133 115//134
f 118//135 107//136 117//137
f 119//138 110//139 109//140
f 121//141 112//142 111//143
f 123//144 114//145 113//146
f 125//147 116//148 115//149
f 127//150 118//151 117//152
f 51//153 119//154 52//155
f 55//156 121//157 56//158
f 59//159 123//160 60//161
f 63//162 125//163 64//164
f 67//165 127//166 68//167
f 66//168 25//169 67//170
f 78//171 40//172 66//173
f 36//174 78//175 88//176
f 98//177 36//178 88//179
f 32//180 98//181 108//173
f 118//182 32//183 108//184
f 28//185 118//186 128//179
f 25//187 128//188 67//189
f 63//190 127//191 126//192
f 127//193 116//194 126//195
f 116//196 107//197 106//198
f 107//199 96//200 106//201
f 96//202 87//203 86//195
f 87//204 76//205 86//192
f 76//206 65//207 62//201
f 65//208 63//209 62//198
f 59//210 125//211 124//212
f 125//213 114//214 124//215
f 114//216 105//217 104//218
f 105//219 94//220 104//221
f 94//222 85//223 84//215
f 85//224 74//225 84//212
f 74//226 61//227 58//221
f 61//228 59//229 58//218
f 55//230 123//231 122//232
f 123//233 112//234 122//235
f 112//236 103//237 102//238
f 103//239 92//240 102//241
f 92//242 83//243 82//235
f 83//244 72//245 82//232
f 72//246 57//247 54//248
f 57//249 55//250 54//238
f 51//251 121//252 120//253
f 121//254 110//255 120//256
f 110//257 101//258 100//259
f 101//260 90//261 100//262
f 90//263 81//264 80//256
f 81//265 70//266 80//253
f 70//267 53//268 50//262
f 53//269 51//270 50//259
f 41//271 119//272 42//273
f 119//274 43//275 42//276
f 43//277 99//278 44//279
f 99//280 45//281 44//282
f 45//283 79//284 46//276
f 79//285 47//286 46//273
f 47//287 49//288 48//282
f 49//289 41//290 48//279
f 26//19 27//291 28//20
f 28//22 27//292 29//23
f 29//25 31//293 32//26
f 32//28 31//294 33//29
f 33//31 35//295 36//32
f 36//34 35//296 37//35
f 29//297 27//298 31//38
f 27//298 26//37 39//37
f 31//38 27//298 37//37
f 39//37 37//37 27//298
f 37//37 35//37 31//38
f 37//39 39//299 40//40
f 40//42 39//300 26//43
f 48//47 41//301 42//302
f 42//302 43//303 44//45
f 44//45 45//304 46//46
f 46//46 47//305 48//47
f 48//47 42//302 44//45
f 49//48 50//306 51//49
f 53//51 54//307 55//52
f 57//54 58//308 59//55
f 61//57 62//309 63//58
f 65//60 66//310 67//61
f 70//63 50//311 49//64
f 72//66 54//312 53//67
f 74//69 58//313 57//70
f 76//72 62//314 61//73
f 78//75 66//315 65//76
f 79//78 80//316 70//79
f 81//81 82//317 72//82
f 83//84 84//318 74//85
f 85//87 86//319 76//88
f 87//90 88//320 78//91
f 90//93 80//321 79//94
f 92//96 82//322 81//97
f 94//99 84//323 83//100
f 96//102 86//324 85//103
f 98//105 88//325 87//106
f 99//108 100//326 90//109
f 101//111 102//327 92//112
f 103//114 104//328 94//115
f 105//117 106//329 96//118
f 107//120 108//330 98//121
f 110//123 100//331 99//124
f 112//126 102//332 101//127
f 114//129 104//333 103//130
f 116//132 106//334 105//133
f 118//135 108//335 107//136
f 119//138 120//336 110//139
f 121//141 122//337 112//142
f 123//144 124//338 114//145
f 125//147 126//339 116//148
f 127//150 128//340 118//151
f 51//153 120//341 119//154
f 55//156 122//342 121//157
f 59//159 124//343 123//160
f 63//162 126//344 125//163
f 67//165 128//345 127//166
f 66//168 40//346 25//169
f 78//171 38//347 40//172
f 36//174 38//348 78//175
f 98//177 34//349 36//178
f 32//180 34//350 98//181
f 118//182 30//348 32//183
f 28//185 30//347 118//186
f 25//187 28//351 128//188
f 63//190 68//352 127//191
f 127//193 117//353 116//194
f 116//196 117//354 107//197
f 107//199 97//352 96//200
f 96//202 97//355 87//203
f 87//204 77//354 76//205
f 76//206 77//353 65//207
f 65//208 68//355 63//209
f 59//210 64//356 125//211
f 125//213 115//357 114//214
f 114//216 115//358 105//217
f 105//219 95//356 94//220
f 94//222 95//359 85//223
f 85//224 75//358 74//225
f 74//226 75//357 61//227
f 61//228 64//359 59//229
f 55//230 60//360 123//231
f 123//233 113//361 112//234
f 112//236 113//362 103//237
f 103//239 93//360 92//240
f 92//242 93//363 83//243
f 83//244 73//362 72//245
f 72//246 73//361 57//247
f 57//249 60//363 55//250
f 51//251 56//364 121//252
f 121//254 111//365 110//255
f 110//257 111//366 101//258
f 101//260 91//364 90//261
f 90//263 91//367 81//264
f 81//265 71//366 70//266
f 70//267 71//365 53//268
f 53//269 56//367 51//270
f 41//271 52//368 119//272
f 119//274 109//369 43//275
f 43//277 109//370 99//278
f 99//280 89//368 45//281
f 45//283 89//371 79//284
f 79//285 69//370 47//286
f 47//287 69//369 49//288
f 49//289 52//371 41//290
