<?xml version="1.0" encoding="UTF-8" standalone="no"?>
<!-- Creator: CorelDRAW -->

<svg
   xml:space="preserve"
   width="3750px"
   height="1000px"
   version="1.1"
   style="shape-rendering:geometricPrecision; text-rendering:geometricPrecision; image-rendering:optimizeQuality; fill-rule:evenodd; clip-rule:evenodd"
   viewBox="0 0 3750 1000"
   id="svg145"
   sodipodi:docname="miniworld-text-revised.svg"
   inkscape:version="1.2.1 (9c6d41e410, 2022-07-14)"
   inkscape:export-filename="..\text\miniworld-text-revised.png"
   inkscape:export-xdpi="96"
   inkscape:export-ydpi="96"
   xmlns:inkscape="http://www.inkscape.org/namespaces/inkscape"
   xmlns:sodipodi="http://sodipodi.sourceforge.net/DTD/sodipodi-0.dtd"
   xmlns="http://www.w3.org/2000/svg"
   xmlns:svg="http://www.w3.org/2000/svg"><sodipodi:namedview
   id="namedview147"
   pagecolor="#ffffff"
   bordercolor="#666666"
   borderopacity="1.0"
   inkscape:showpageshadow="2"
   inkscape:pageopacity="0.0"
   inkscape:pagecheckerboard="0"
   inkscape:deskcolor="#d1d1d1"
   showgrid="false"
   inkscape:zoom="0.15861561"
   inkscape:cx="1579.2897"
   inkscape:cy="498.05943"
   inkscape:window-width="1304"
   inkscape:window-height="745"
   inkscape:window-x="54"
   inkscape:window-y="-8"
   inkscape:window-maximized="1"
   inkscape:current-layer="g1832"
   showguides="true"><inkscape:grid
     type="xygrid"
     id="grid2199"
     dotted="true" /><sodipodi:guide
     position="760,440"
     orientation="1,0"
     id="guide2201"
     inkscape:locked="false" /><sodipodi:guide
     position="920,460"
     orientation="1,0"
     id="guide2203"
     inkscape:locked="false" /><sodipodi:guide
     position="969.40546,650.50798"
     orientation="0,-1"
     id="guide1712"
     inkscape:locked="false" /><sodipodi:guide
     position="1075.3601,327.89996"
     orientation="0,-1"
     id="guide1775"
     inkscape:locked="false" /><sodipodi:guide
     position="610.75815,427.73977"
     orientation="1,0"
     id="guide315"
     inkscape:locked="false" /><sodipodi:guide
     position="1140.7613,455.49074"
     orientation="1,0"
     id="guide317"
     inkscape:locked="false" /><sodipodi:guide
     position="1050.8766,783.17354"
     orientation="0,-1"
     id="guide681"
     inkscape:locked="false" /><sodipodi:guide
     position="1095.0817,216.82646"
     orientation="0,-1"
     id="guide683"
     inkscape:locked="false" /></sodipodi:namedview>
 <defs
   id="defs139"><rect
   x="920"
   y="200"
   width="3940"
   height="740"
   id="rect1708" />
  <style
   type="text/css"
   id="style137">
   <![CDATA[
    .str0 {stroke:#373435;stroke-width:2.36;stroke-miterlimit:22.9256}
    .fil0 {fill:none}
   ]]>
  </style>
 </defs>
 <g
   id="Layer_x0020_1"
   inkscape:label="Layer 1">
  <metadata
   id="CorelCorpID_0Corel-Layer" />

 <rect
   style="fill:#ffffff;stroke-width:15;stroke-linecap:round"
   id="rect572"
   width="3750"
   height="1000"
   x="0"
   y="0"
   ry="300"
   sodipodi:insensitive="true" /><g
   id="g1832"
   transform="translate(380.76132)"><g
     id="g1207"><text
       xml:space="preserve"
       id="text1706"
       style="font-style:normal;font-variant:normal;font-weight:200;font-stretch:normal;font-size:490px;line-height:1.25;font-family:'Source Sans Pro';-inkscape-font-specification:'Source Sans Pro Ultra-Light';white-space:pre;shape-inside:url(#rect1708);display:inline"
       transform="translate(-49,45.2)"><tspan
         x="920"
         y="628.75"
         id="tspan1249"><tspan
           dx="0 0 0 0 0 0 -0.00012207031"
           id="tspan1247">Miniworld</tspan></tspan></text><g
       id="g490"
       style="clip-rule:evenodd;fill-rule:evenodd;stroke-width:14.6802;stroke-dasharray:none;image-rendering:optimizeQuality;shape-rendering:geometricPrecision;text-rendering:geometricPrecision"
       transform="matrix(0.61762841,0,0,0.61762841,173.9807,171.84477)"><g
         id="g18747"
         transform="matrix(1.1723162,0,0,1.1723162,-26.983808,2.6455644)"
         style="stroke-width:14.0901;stroke-dasharray:none"><g
           id="g18738"
           style="stroke-width:14.0901;stroke-dasharray:none"><path
             style="fill:none;stroke:#000000;stroke-width:14.0901;stroke-linecap:round;stroke-linejoin:round;stroke-dasharray:none;stroke-opacity:1"
             d="m 277.1624,429.70927 c 0,0 6.20318,11.92634 6.89432,21.60224 0.69113,9.6759 2.55834,20.52402 10.36703,25.57202 14.50516,7.42722 21.95832,10.37007 20.29937,28.36513 -0.58755,5.27384 -7.82606,9.91605 -8.55007,15.17641 -2.0393,14.81679 -0.85114,32.44927 8.82476,42.8163 16.19789,8.02023 25.8484,17.16449 33.33451,29.0618 6.22022,5.52908 22.8662,18.66066 31.85096,23.4986 8.98476,4.83795 30.35124,13.13158 33.11578,11.74931 2.76454,-1.38227 -10.36703,-16.58725 -10.36703,-19.3518 0,-2.76454 1.38227,-14.51384 -2.76455,-17.27839 -4.14681,-2.76454 -12.44044,-4.83794 -9.67589,-11.7493 2.76454,-6.91136 9.67589,-17.96953 8.98476,-24.18975 -0.69114,-6.22022 -8.9848,-14.16097 -20.04294,-26.26314 -3.72962,-4.08175 -3.20609,-12.29069 -10.36703,-16.58726 -10.36703,-6.22022 -34.55678,-11.05817 -34.55678,-11.05817 -5.2019,-3.93676 0.89128,-15.04921 -10.09818,-22.66452 8.63272,-3.29852 18.04052,-12.23242 8.87592,-16.57021 -3.78027,-1.78928 -16.61939,6.87923 -19.5118,3.98682 0,0 -13.82271,-4.83795 3.45568,-13.82271 17.27839,-8.98476 27.67952,-5.88318 27.67952,-5.88318 6.16878,13.06213 12.24428,24.21576 24.15564,19.01475 0,0 -7.60248,-19.35179 -4.14681,-22.11634 3.45568,-2.76454 7.74106,-2.58804 16.58725,-9.67589 9.66525,-7.74411 5.57042,-10.90479 6.23306,-17.15082 5.54252,-12.58667 26.14404,-16.90046 22.1035,-29.15526 -7.70685,-10.04523 -26.96727,-12.25762 -32.46186,0.0707 -2.02707,4.61626 -8.32027,4.21438 -11.20176,4.64894 -23.79963,-14.83164 -10.88631,-32.98058 1.50435,-25.45366 7.6137,2.81154 10.63623,-4.72702 16.58726,-13.82271 -11.27424,-18.2082 -11.1121,8.16777 -19.3518,-11.05817"
             id="path16108"
             sodipodi:nodetypes="csccsccssssssssccscsccssccccccc" /><path
             style="fill:none;stroke:#000000;stroke-width:14.0901;stroke-linecap:round;stroke-linejoin:round;stroke-dasharray:none;stroke-opacity:1"
             d="m 501.2372,620.68825 c -6.03072,1.27802 -5.18705,-13.15142 -8.45755,-20.7826 -4.14681,-9.6759 8.36341,-22.54657 7.13269,-30.17506 -3.17807,-19.69899 4.90349,-24.35391 7.37918,-44.83387 -17.81723,9.83862 -30.40428,4.92569 -35.04328,3.00686 -8.02287,-3.11454 -16.5504,-6.3351 -20.93673,-12.31646 -7.60249,-10.36703 -8.29362,-33.86564 -2.76454,-40.777 5.52909,-6.91135 13.01413,-21.20386 17.16094,-23.27727 4.14681,-2.0734 33.63075,-12.55789 38.4687,-12.55789 4.83795,0 18.24335,-4.10776 20.2191,1.49973 3.07794,8.73568 11.38322,13.31735 25.74819,10.99944 12.74661,-2.05678 12.44044,-3.61829 17.27839,8.13101 4.83794,11.7493 4.83794,15.20498 8.29362,22.11634 3.45568,6.91135 8.98476,8.29362 8.98476,8.29362"
             id="path16110"
             sodipodi:nodetypes="cssccssssssssc" /><path
             style="fill:none;stroke:#000000;stroke-width:14.0901;stroke-linecap:round;stroke-linejoin:round;stroke-dasharray:none;stroke-opacity:1"
             d="m 424.35723,360.77276 c -4.11504,19.90767 8.20437,20.37537 18.2895,10.18998 0,0 -2.39338,-8.11657 -8.6136,-11.57225 -6.22022,-3.45568 -9.6759,1.38227 -9.6759,1.38227 z"
             id="path16112"
             sodipodi:nodetypes="ccsc" /><path
             style="fill:none;stroke:#000000;stroke-width:14.0901;stroke-linecap:round;stroke-linejoin:round;stroke-dasharray:none;stroke-opacity:1"
             d="m 459.60514,331.05393 c -1.38227,6.91135 -16.17619,10.88199 -12.72051,15.0288 11.50704,16.82535 21.54174,12.63534 25.85063,-2.00984 5.41127,-4.98415 11.53492,-9.32724 15.83158,-1.22938 4.99927,9.42209 -2.20519,9.7747 -3.15273,15.3232 -0.4743,5.78062 0.38252,21.90016 -6.29651,21.34815 -11.99512,-0.99137 -21.60617,4.73017 -30.99541,6.54673 -5.35149,14.60443 -7.55542,23.48146 -17.57998,31.02368 -2.15432,1.62086 -2.25999,13.00566 -2.71226,15.35444 6.91136,11.7493 13.80567,14.03385 20.02589,8.50477 6.22022,-5.52908 0.69113,-6.91135 4.83794,-14.51384 2.5762,-12.38182 4.24442,-12.21243 12.44045,-15.89613 9.49605,4.73105 9.07387,24.08705 25.21792,14.49681 3.72211,-3.72211 -10.18254,-19.05397 -8.23811,-19.38184 2.70201,-5.09355 18.34639,-10.02571 24.27995,-2.20572 3.2828,4.32649 7.7607,9.15407 12.23214,12.51084 5.96355,1.04654 7.86628,-6.03594 7.64373,-15.18876 -0.12132,-4.98969 10.14816,-5.03508 14.29682,-7.70557 16.66185,-9.50858 26.5138,13.38705 19.94425,22.3122 -1.61126,1.9335 -10.20387,1.14786 -14.2062,3.19163 -4.58152,2.33953 -4.23468,7.09558 -2.73514,8.16948 9.35062,6.69649 13.20765,1.25502 22.14312,5.84013 11.88426,6.09825 9.89641,13.68261 16.88701,19.59549"
             id="path16116"
             sodipodi:nodetypes="cccscscscsccccscsccsssc" /><path
             style="fill:none;stroke:#000000;stroke-width:14.0901;stroke-linecap:round;stroke-linejoin:round;stroke-dasharray:none;stroke-opacity:1"
             d="m 384.03647,329.09797 c 21.00486,4.91676 9.5582,11.53703 15.71994,19.64542 6.63328,11.56479 10.65093,10.13838 14.90787,1.48529 5.87221,-5.3714 8.507,-9.51901 17.29544,-16.41021 l -4.14681,-8.29363"
             id="path16118"
             sodipodi:nodetypes="ccccc" /></g><circle
           style="opacity:1;fill:none;stroke:#000000;stroke-width:14.0901;stroke-linecap:round;stroke-linejoin:round;stroke-dasharray:none"
           id="circle16106"
           cx="426.84485"
           cy="481.91135"
           r="160" /></g><g
         id="g392"
         transform="matrix(0.75630482,-0.8032266,0.8032266,0.75630482,-240.62265,529.34585)"><g
           id="g29828"
           transform="matrix(0.99175264,0,0,1.0001289,7.816889,-0.06356953)"
           style="stroke-width:14.7402;stroke-dasharray:none"><path
             style="fill:none;stroke:#000000;stroke-width:14.7402;stroke-linecap:butt;stroke-linejoin:round;stroke-dasharray:none;stroke-opacity:1"
             d="m 825.0321,552.91707 c -16.91628,-0.0735 -73.51319,4.24367 -90.75993,30.22392 -15.83133,23.8481 -64.93029,99.14331 -96.48429,111.5821"
             id="path16100"
             sodipodi:nodetypes="csc" /><path
             style="fill:none;stroke:#000000;stroke-width:14.7402;stroke-linecap:round;stroke-linejoin:round;stroke-dasharray:none;stroke-opacity:1"
             d="m 914.3356,567.83557 h -65.72383 c -10.11136,0 -15.16703,0 -20.22271,-10.11135 -20.22272,-40.44544 -20.22272,-85.94655 0,-121.3363 5.05568,-10.11136 10.11135,-10.11136 20.22271,-10.11136 h 65.72383 c -20.52021,41.82523 -32.79309,85.80515 0,141.55901 z"
             id="path16102"
             sodipodi:nodetypes="ccccccc" /><path
             style="fill:none;stroke:#000000;stroke-width:14.7402;stroke-linecap:round;stroke-linejoin:round;stroke-dasharray:none;stroke-opacity:1"
             d="m 914.3356,567.83557 c 10.11136,0 10.33707,0.10166 15.16704,-10.11135 18.48329,-39.14571 21.79262,-79.24414 0.49948,-121.35599 -5.55516,-10.09167 -5.55516,-10.09167 -15.66652,-10.09167"
             id="path16104"
             sodipodi:nodetypes="cccc" /><path
             style="clip-rule:evenodd;fill:none;fill-rule:evenodd;stroke:#000000;stroke-width:14.7402;stroke-linecap:round;stroke-linejoin:round;stroke-dasharray:none;stroke-opacity:1;image-rendering:optimizeQuality;shape-rendering:geometricPrecision;text-rendering:geometricPrecision"
             d="m 825.0321,440.65678 c -16.91628,-0.059 -73.51319,-4.37614 -90.75993,-30.22392 -17.40042,-26.07811 -74.73102,-120.8676 -104.69416,-120.86944 l -429.14578,-0.0263 c -77.71866,-0.005 -112.260284,117.30456 -112.260284,215.88516 0,79.70985 24.322924,165.50043 78.071384,191.03782"
             id="path16100-9"
             sodipodi:nodetypes="cssssc" /></g><path
           style="clip-rule:evenodd;fill:none;fill-rule:evenodd;stroke:#000000;stroke-width:14.6802;stroke-linecap:round;stroke-linejoin:round;stroke-dasharray:none;stroke-opacity:1;image-rendering:optimizeQuality;shape-rendering:geometricPrecision;text-rendering:geometricPrecision"
           d="m 519.94226,704.03668 c 77.71866,0 77.71866,-51.81244 86.35407,-120.89569 h 34.54162 c 8.63541,34.54162 8.63541,189.97894 -34.54162,189.97894 H 407.68198 209.06763 c -43.17703,0 -43.17703,-155.43732 -34.54162,-189.97894 h 34.54162 c 8.63541,69.08325 8.63541,120.89569 86.35407,120.89569 h 112.26028 z"
           id="path16096-2"
           sodipodi:nodetypes="sccscsccscs" /></g></g></g></g></g>
</svg>
